<svg height="512pt" viewBox="-18 0 512 512" width="512pt" xmlns="http://www.w3.org/2000/svg"><path d="m152 0h-96c-30.878906 0-56 25.121094-56 56v400c0 30.878906 25.121094 56 56 56h96c30.878906 0 56-25.121094 56-56v-400c0-30.878906-25.121094-56-56-56zm0 0" fill="#b1a7dc"/><path d="m192 480h-96c-30.878906 0-56-25.121094-56-56v-400c0-8.152344 1.765625-15.898438 4.914062-22.894531-25.585937 5.160156-44.914062 27.808593-44.914062 54.894531v400c0 30.878906 25.121094 56 56 56h96c22.722656 0 42.316406-13.613281 51.085938-33.105469-3.582032.722657-7.289063 1.105469-11.085938 1.105469zm0 0" fill="#9689d0"/><path d="m104 80c13.234375 0 24-10.765625 24-24s-10.765625-24-24-24-24 10.765625-24 24 10.765625 24 24 24zm0 0" fill="#e0dce2"/><path d="m104 432c-13.234375 0-24 10.765625-24 24s10.765625 24 24 24 24-10.765625 24-24-10.765625-24-24-24zm0 0" fill="#e0dce2"/><path d="m114.339844 34.34375-31.992188 31.996094c2.367188 4.9375 6.375 8.945312 11.3125 11.316406l31.996094-31.996094c-2.371094-4.9375-6.378906-8.945312-11.316406-11.316406zm0 0" fill="#d0cad3"/><path d="m114.339844 434.34375-31.992188 31.996094c2.367188 4.9375 6.375 8.945312 11.3125 11.316406l31.996094-31.996094c-2.371094-4.9375-6.378906-8.945312-11.316406-11.316406zm0 0" fill="#d0cad3"/><path d="m104 280c-22.054688 0-40 17.945312-40 40 0 12.621094 6.027344 24.488281 16 31.988281v48.011719c0 4.417969 3.582031 8 8 8h32c4.417969 0 8-3.582031 8-8v-48.011719c9.972656-7.5 16-19.367187 16-31.988281 0-22.054688-17.945312-40-40-40zm0 0" fill="#827189"/><path d="m104 400v-48.011719c-9.972656-7.5-16-19.367187-16-31.988281 0-17.875 11.789062-33.050781 28-38.15625-3.789062-1.195312-7.820312-1.84375-12-1.84375-22.054688 0-40 17.945312-40 40 0 12.621094 6.027344 24.488281 16 31.988281v48.011719c0 4.417969 3.582031 8 8 8h24c-4.417969 0-8-3.582031-8-8zm0 0" fill="#634e6c"/><path d="m474.316406 182.433594c0-.003906 0-.003906 0 0-2.558594-7.03125-7.699218-12.644532-14.472656-15.808594-6.78125-3.160156-14.382812-3.496094-21.410156-.9375-43.730469 15.894531-68.398438.179688-102.554688-21.566406-21.621094-13.769532-43.976562-28.007813-73.089844-35.28125-45.980468-11.496094-91.453124-5.535156-131.59375 17.226562-8.480468-3.976562-17.789062-6.066406-27.195312-6.066406-35.289062 0-64 28.710938-64 64s28.710938 64 64 64 64-28.710938 64-64c0-4.476562-.46875-8.917969-1.390625-13.277344 25.746094-12.285156 53.5-14.832031 82.601563-7.558594 20.285156 5.070313 37.917968 16.304688 56.59375 28.195313 27.128906 17.277344 57.875 36.855469 99.234374 36.855469 16.792969 0 34.46875-3.332032 52.527344-9.898438 14.511719-5.277344 22.023438-21.375 16.75-35.882812zm0 0" fill="#ffd982"/><path d="m104 224.863281c-31.339844 0-57.46875-22.644531-62.933594-52.429687-.6875 3.753906-1.066406 7.617187-1.066406 11.566406 0 35.289062 28.710938 64 64 64s64-28.710938 64-64c0-3.886719-.371094-7.742188-1.070312-11.546875-5.472657 29.773437-31.597657 52.410156-62.929688 52.410156zm0 0" fill="#ffc02e"/><path d="m474.316406 182.429688c-.25-.6875-.53125-1.355469-.832031-2.011719-3.003906 6.625-8.554687 12.085937-15.914063 14.761719-18.0625 6.566406-35.734374 9.898437-52.53125 9.898437-41.359374 0-72.105468-19.578125-99.230468-36.855469-18.679688-11.894531-36.3125-23.125-56.597656-28.195312-29.097657-7.273438-56.855469-4.730469-82.601563 7.558594.925781 4.359374 1.390625 8.804687 1.390625 13.277343 0 3.242188-.246094 6.429688-.714844 9.542969 25.558594-12.011719 53.082032-14.453125 81.925782-7.246094 20.285156 5.074219 37.917968 16.304688 56.597656 28.199219 27.125 17.273437 57.871094 36.851563 99.230468 36.851563 16.796876 0 34.46875-3.328126 52.53125-9.898438 14.507813-5.273438 22.019532-21.371094 16.746094-35.882812zm0 0" fill="#ffc02e"/><path d="m104 152c-17.644531 0-32 14.355469-32 32s14.355469 32 32 32 32-14.355469 32-32-14.355469-32-32-32zm0 0" fill="#ffe6ab"/></svg>