<svg height="471pt" viewBox="-60 0 471 471.62203" width="471pt" xmlns="http://www.w3.org/2000/svg"><path d="m88.199219 247.621094h176v144c0 44.183594-35.816407 80-80 80h-16c-44.183594 0-80-35.816406-80-80zm0 0" fill="#7d8d9c"/><path d="m88.199219 159.621094h176v88h-176zm0 0" fill="#5a6470"/><path d="m280.199219 128.511719c-1.371094-.003907-2.71875-.355469-3.910157-1.027344-121.089843-68.101563-195.617187-3.78125-198.746093-1.015625-3.296875 2.871094-8.285157 2.5625-11.203125-.6875-2.921875-3.253906-2.691406-8.246094.515625-11.214844.832031-.761718 85.777343-74.945312 217.265625-1.023437 3.164062 1.785156 4.726562 5.480469 3.808594 8.992187-.921876 3.515625-4.097657 5.96875-7.730469 5.976563zm0 0" fill="#dd3e46"/><path d="m308.199219 96.511719c-1.371094-.003907-2.71875-.355469-3.910157-1.027344-153.355468-86.261719-253.859374-1.789063-254.859374-.917969-3.339844 2.890625-8.394532 2.523438-11.28125-.820312-2.890626-3.34375-2.523438-8.394532.820312-11.285156 1.0625-.941407 110.125-92.621094 273.152344-.917969 3.164062 1.785156 4.730468 5.480469 3.804687 8.996093-.921875 3.519532-4.097656 5.96875-7.734375 5.972657zm0 0" fill="#dd3e46"/><path d="m344.199219 72.511719c-1.578125-.003907-3.121094-.46875-4.433594-1.34375-77.628906-51.738281-156.183594-67.546875-233.503906-46.921875-33.828125 8.710937-65.433594 24.472656-92.75 46.246094-3.3125 2.835937-8.285157 2.496093-11.183594-.765626-2.894531-3.257812-2.644531-8.238281.558594-11.191406 1.480469-1.3125 150.914062-130.59375 345.753906-.679687 2.933594 1.953125 4.238281 5.601562 3.21875 8.972656-1.023437 3.375-4.132813 5.683594-7.660156 5.683594zm0 0" fill="#dd3e46"/><g fill="#cfdfe8"><path d="m216.199219 367.621094h-80c-4.417969 0-8-3.582032-8-8 0-4.417969 3.582031-8 8-8h80c4.417969 0 8 3.582031 8 8 0 4.417968-3.582031 8-8 8zm0 0"/><path d="m216.199219 399.621094h-80c-4.417969 0-8-3.582032-8-8 0-4.417969 3.582031-8 8-8h80c4.417969 0 8 3.582031 8 8 0 4.417968-3.582031 8-8 8zm0 0"/><path d="m184.199219 431.621094h-16c-4.417969 0-8-3.582032-8-8 0-4.417969 3.582031-8 8-8h16c4.417969 0 8 3.582031 8 8 0 4.417968-3.582031 8-8 8zm0 0"/><path d="m136.199219 431.621094c-.535157-.015625-1.070313-.070313-1.601563-.160156-.5-.085938-.984375-.246094-1.4375-.480469-.511718-.175781-1-.417969-1.449218-.71875l-1.191407-.960938c-3.09375-3.152343-3.09375-8.203125 0-11.359375l1.191407-.960937c.449218-.300781.9375-.542969 1.449218-.71875.453125-.230469.9375-.394531 1.4375-.480469 1.023438-.238281 2.089844-.238281 3.113282 0 .53125.074219 1.050781.238281 1.527343.480469.492188.160156.953125.40625 1.359375.71875.472656.320312.882813.640625 1.28125.960937 1.460938 1.535156 2.289063 3.5625 2.320313 5.679688-.011719 1.046875-.230469 2.078125-.640625 3.039062-.386719.980469-.957032 1.878906-1.679688 2.640625-.398437.320313-.800781.640625-1.28125.960938-.40625.316406-.867187.558593-1.359375.71875-.476562.246093-.996093.40625-1.527343.480469-.5.09375-1.003907.148437-1.511719.160156zm0 0"/><path d="m216.199219 431.621094c-1.046875-.011719-2.078125-.230469-3.039063-.640625-.511718-.175781-1-.417969-1.449218-.71875l-1.191407-.960938c-1.464843-1.53125-2.292969-3.558593-2.320312-5.679687.011719-1.042969.230469-2.078125.640625-3.039063.386718-.980469.957031-1.875 1.679687-2.640625.378907-.339844.777344-.660156 1.191407-.960937.449218-.300781.9375-.542969 1.449218-.71875 1.9375-.839844 4.140625-.839844 6.078125 0 .96875.40625 1.863281.976562 2.640625 1.679687.722656.765625 1.292969 1.660156 1.679688 2.640625.410156.960938.628906 1.996094.640625 3.039063-.03125 2.117187-.859375 4.148437-2.320313 5.679687-.777344.707031-1.671875 1.273438-2.640625 1.679688-.960937.410156-1.992187.628906-3.039062.640625zm0 0"/></g><path d="m216.199219 303.621094c0-13.253906-17.910157-24-40-24-22.089844 0-40 10.746094-40 24s17.910156 24 40 24c22.089843 0 40-10.746094 40-24zm0 0" fill="#ffd782"/><path d="m120.199219 159.621094h112v32h-112zm0 0" fill="#ffd782"/></svg>