<?xml version="1.0" encoding="iso-8859-1"?>
<!-- Generator: Adobe Illustrator 19.0.0, SVG Export Plug-In . SVG Version: 6.00 Build 0)  -->
<svg version="1.1" id="Layer_1" xmlns="http://www.w3.org/2000/svg" xmlns:xlink="http://www.w3.org/1999/xlink" x="0px" y="0px"
	 viewBox="0 0 512 512" style="enable-background:new 0 0 512 512;" xml:space="preserve">
<path style="fill:#D5DCED;" d="M85.333,331.852v18.963c24.901,22.081,91.806,37.926,170.667,37.926s145.766-15.845,170.667-37.926
	v-18.963H85.333z"/>
<path style="fill:#C7CFE2;" d="M341.333,379.259c-78.86,0-145.766-15.845-170.667-37.926v-9.481H85.333v18.963
	c24.901,22.081,91.806,37.926,170.667,37.926c37.398,0,72.034-3.596,100.85-9.698C351.733,379.179,346.564,379.259,341.333,379.259z
	"/>
<path style="fill:#E4EAF8;" d="M436.148,350.815H75.852c-10.473,0-18.963-8.489-18.963-18.963v-28.444h398.222v28.444
	C455.111,342.324,446.62,350.815,436.148,350.815z"/>
<path style="fill:#D5DCED;" d="M170.667,331.852v-28.444H56.889v28.444c0,10.472,8.491,18.963,18.963,18.963H189.63
	C179.156,350.815,170.667,342.324,170.667,331.852z"/>
<polygon style="fill:#AFB9D2;" points="502.519,237.037 9.481,237.037 56.889,312.889 455.111,312.889 "/>
<polygon style="fill:#959CB5;" points="256,237.037 9.481,237.037 56.889,312.889 256,312.889 "/>
<polygon style="fill:#464655;" points="483.556,237.037 28.444,237.037 75.852,312.889 436.148,312.889 "/>
<path style="fill:#E4EAF8;" d="M502.519,256H9.481C4.245,256,0,251.755,0,246.519V132.741c0-5.236,4.245-9.481,9.481-9.481h493.037
	c5.236,0,9.481,4.245,9.481,9.481v113.778C512,251.755,507.755,256,502.519,256z"/>
<circle style="fill:#FF5050;" cx="256" cy="189.63" r="28.444"/>
<path style="fill:#C84146;" d="M270.222,203.852c-15.71,0-28.444-12.735-28.444-28.444c0-4.168,0.946-8.098,2.558-11.665
	c-9.877,4.46-16.78,14.345-16.78,25.887c0,15.71,12.735,28.444,28.444,28.444c11.541,0,21.427-6.903,25.887-16.78
	C278.319,202.905,274.391,203.852,270.222,203.852z"/>
<path style="fill:#D5DCED;" d="M132.741,246.519V132.741c0-5.236,4.245-9.481,9.481-9.481H9.481c-5.236,0-9.481,4.245-9.481,9.481
	v113.778C0,251.755,4.245,256,9.481,256h132.741C136.985,256,132.741,251.755,132.741,246.519z"/>
<g>
	<rect x="75.852" y="256" style="fill:#959CB5;" width="18.963" height="56.889"/>
	<rect x="113.778" y="256" style="fill:#959CB5;" width="18.963" height="56.889"/>
	<rect x="151.704" y="256" style="fill:#959CB5;" width="18.963" height="56.889"/>
</g>
<g>
	<rect x="189.63" y="256" style="fill:#AFB9D2;" width="18.963" height="56.889"/>
	<rect x="227.556" y="256" style="fill:#AFB9D2;" width="18.963" height="56.889"/>
	<rect x="265.481" y="256" style="fill:#AFB9D2;" width="18.963" height="56.889"/>
	<rect x="303.407" y="256" style="fill:#AFB9D2;" width="18.963" height="56.889"/>
	<rect x="341.333" y="256" style="fill:#AFB9D2;" width="18.963" height="56.889"/>
	<rect x="379.259" y="256" style="fill:#AFB9D2;" width="18.963" height="56.889"/>
	<rect x="417.185" y="256" style="fill:#AFB9D2;" width="18.963" height="56.889"/>
</g>
<g>
</g>
<g>
</g>
<g>
</g>
<g>
</g>
<g>
</g>
<g>
</g>
<g>
</g>
<g>
</g>
<g>
</g>
<g>
</g>
<g>
</g>
<g>
</g>
<g>
</g>
<g>
</g>
<g>
</g>
</svg>
